<svg xmlns="http://www.w3.org/2000/svg" viewBox="0 0 1024 1024">
  <path d="M854.016 301.568c51.712 16.896 81.92 70.144 70.144 122.88l-2.56 9.728-139.264 429.056c-16.896 51.712-70.144 81.92-122.88 70.144l-9.728-2.56-285.696-92.672c-51.712-16.896-81.92-70.144-70.144-122.88l2.56-9.728 3.072-9.216 57.344 18.432-3.072 9.216c-6.656 20.992 2.56 44.032 22.016 53.76l6.656 3.072 285.696 92.672c20.992 6.656 44.032-2.56 53.76-22.016l3.072-6.656 139.264-429.056c6.656-20.992-2.56-44.032-22.016-53.76l-6.656-3.072-231.936-75.264 18.432-57.344 231.936 75.264z" fill="#9E9E9E"/>
  <path d="M534.016 88.576H232.96C175.104 88.576 128 135.68 128 193.536v451.072c0 57.856 47.104 104.96 104.96 104.96h300.544c57.856 0 104.96-47.104 104.96-104.96V193.536c0.512-57.856-46.592-104.96-104.448-104.96zM232.96 148.48h300.544c25.088 0 45.056 19.968 45.056 45.056v451.072c0 25.088-19.968 45.056-45.056 45.056H232.96c-25.088 0-45.056-19.968-45.056-45.056V193.536c0-24.576 20.48-45.056 45.056-45.056z" fill="#9E9E9E"/>
  <path d="M383.488 287.232c10.752 0 46.592 64.512 78.848 98.816 35.328 36.864 36.864 69.632 23.552 94.208-12.288 23.552-53.76-1.024-97.792 0-46.08 1.024-91.648 26.624-107.52 0-15.36-25.6-6.656-51.2 23.552-94.208 30.72-42.496 68.608-98.816 79.36-98.816z" fill="#353535"/>
  <path d="M374.272 467.968h17.408l7.68 47.104 22.016 15.872v12.288H346.624v-12.8l21.504-15.872 6.144-46.592z" fill="#353535"/>
  <path d="M694.272 437.76l69.12-49.664 33.28 76.8-74.24 50.688-28.16-77.824z" fill="#C5252C"/>
</svg>
